<svg id="Layer_1" data-name="Layer 1" xmlns="http://www.w3.org/2000/svg" viewBox="0 0 193.84 223.08"><defs><style>.cls-1{fill:none;stroke:#fff;stroke-miterlimit:10;}</style></defs><title>stbx_logo_white</title><polygon class="cls-1" points="154.39 139.62 145.37 133.57 135.61 138.35 144.63 144.4 154.39 139.62"/><polygon class="cls-1" points="155.12 139.31 145.19 133.15 134.88 138.65 144.81 144.82 155.12 139.31"/><polygon class="cls-1" points="155.88 138.96 144.99 132.71 134.12 139.01 145.01 145.26 155.88 138.96"/><polygon class="cls-1" points="156.69 138.55 144.75 132.24 133.31 139.42 145.25 145.73 156.69 138.55"/><polygon class="cls-1" points="157.55 138.08 144.48 131.75 132.45 139.89 145.52 146.22 157.55 138.08"/><polygon class="cls-1" points="158.45 137.54 144.17 131.22 131.55 140.43 145.83 146.74 158.45 137.54"/><polygon class="cls-1" points="159.4 136.93 143.82 130.68 130.6 141.04 146.19 147.29 159.4 136.93"/><polygon class="cls-1" points="160.4 136.23 143.41 130.1 129.6 141.73 146.59 147.86 160.4 136.23"/><polygon class="cls-1" points="161.45 135.45 142.96 129.5 128.56 142.51 147.04 148.47 161.45 135.45"/><polygon class="cls-1" points="162.54 134.57 142.46 128.87 127.46 143.4 147.55 149.1 162.54 134.57"/><polygon class="cls-1" points="163.69 133.58 141.89 128.21 126.32 144.38 148.12 149.76 163.69 133.58"/><polygon class="cls-1" points="164.88 132.48 141.25 127.52 125.13 145.49 148.75 150.44 164.88 132.48"/><polygon class="cls-1" points="166.12 131.25 140.54 126.81 123.89 146.72 149.46 151.16 166.12 131.25"/><polygon class="cls-1" points="167.4 129.88 139.75 126.06 122.6 148.09 150.25 151.9 167.4 129.88"/><polygon class="cls-1" points="168.73 128.36 138.87 125.3 121.27 149.61 151.13 152.67 168.73 128.36"/><polygon class="cls-1" points="170.1 126.68 137.9 124.51 119.9 151.29 152.1 153.46 170.1 126.68"/><polygon class="cls-1" points="171.51 124.82 136.83 123.69 118.49 153.15 153.17 154.27 171.51 124.82"/><polygon class="cls-1" points="172.96 122.76 135.65 122.86 117.04 155.2 154.35 155.11 172.96 122.76"/><polygon class="cls-1" points="174.44 120.5 134.34 122.01 115.56 157.46 155.66 155.96 174.44 120.5"/><polygon class="cls-1" points="175.94 118.02 132.91 121.14 114.06 159.94 157.09 156.83 175.94 118.02"/><polygon class="cls-1" points="177.46 115.3 131.34 120.26 112.54 162.67 158.66 157.7 177.46 115.3"/><polygon class="cls-1" points="179 112.31 129.62 119.38 111.01 165.65 160.38 158.59 179 112.31"/><polygon class="cls-1" points="180.53 109.05 127.74 118.49 109.47 168.92 162.26 159.47 180.53 109.05"/><polygon class="cls-1" points="182.06 105.48 125.68 117.61 107.94 172.49 164.32 160.35 182.06 105.48"/><polygon class="cls-1" points="183.57 101.59 123.44 116.74 106.44 176.38 166.57 161.22 183.57 101.59"/><polygon class="cls-1" points="185.04 97.35 120.99 115.89 104.96 180.61 169.01 162.07 185.04 97.35"/><polygon class="cls-1" points="186.47 92.74 118.33 115.07 103.53 185.22 171.67 162.9 186.47 92.74"/><polygon class="cls-1" points="187.83 87.74 115.45 114.28 102.17 190.23 174.55 163.68 187.83 87.74"/><polygon class="cls-1" points="189.1 82.31 112.32 113.55 100.9 195.66 177.69 164.41 189.1 82.31"/><polygon class="cls-1" points="190.26 76.42 108.92 112.88 99.74 201.54 181.08 165.09 190.26 76.42"/><polygon class="cls-1" points="191.29 70.06 105.25 112.29 98.71 207.91 184.75 165.68 191.29 70.06"/><polygon class="cls-1" points="192.16 63.18 101.28 111.78 97.84 214.79 188.72 166.18 192.16 63.18"/><polygon class="cls-1" points="192.84 55.75 97 111.4 97.17 222.21 193 166.57 192.84 55.75"/><polygon class="cls-1" points="53.59 142.24 54.33 131.41 44.57 136.19 43.84 147.02 53.59 142.24"/><polygon class="cls-1" points="54.05 142.3 54.43 130.63 44.12 136.13 43.74 147.8 54.05 142.3"/><polygon class="cls-1" points="54.53 142.34 54.5 129.79 43.63 136.09 43.66 148.64 54.53 142.34"/><polygon class="cls-1" points="55.05 142.37 54.55 128.88 43.11 136.06 43.61 149.55 55.05 142.37"/><polygon class="cls-1" points="55.62 142.38 54.58 127.91 42.55 136.05 43.59 150.53 55.62 142.38"/><polygon class="cls-1" points="56.23 142.37 54.56 126.86 41.94 136.06 43.6 151.58 56.23 142.37"/><polygon class="cls-1" points="56.88 142.34 54.51 125.73 41.29 136.09 43.66 152.7 56.88 142.34"/><polygon class="cls-1" points="57.58 142.28 54.4 124.52 40.59 136.15 43.76 153.91 57.58 142.28"/><polygon class="cls-1" points="58.32 142.19 54.25 123.22 39.84 136.24 43.91 155.21 58.32 142.19"/><polygon class="cls-1" points="59.13 142.07 54.04 121.84 39.04 136.37 44.13 156.6 59.13 142.07"/><polygon class="cls-1" points="59.98 141.9 53.75 120.35 38.18 136.53 44.41 158.08 59.98 141.9"/><polygon class="cls-1" points="60.9 141.7 53.39 118.77 37.27 136.74 44.77 159.66 60.9 141.7"/><polygon class="cls-1" points="61.87 141.44 52.95 117.08 36.3 137 45.22 161.35 61.87 141.44"/><polygon class="cls-1" points="62.91 141.12 52.41 115.29 35.26 137.31 45.76 163.15 62.91 141.12"/><polygon class="cls-1" points="64.01 140.75 51.76 113.38 34.16 137.69 46.41 165.06 64.01 140.75"/><polygon class="cls-1" points="65.18 140.3 50.99 111.35 32.98 138.13 47.18 167.08 65.18 140.3"/><polygon class="cls-1" points="66.42 139.78 50.08 109.2 31.74 138.66 48.08 169.24 66.42 139.78"/><polygon class="cls-1" points="67.74 139.17 49.03 106.92 30.43 139.26 49.13 171.51 67.74 139.17"/><polygon class="cls-1" points="69.13 138.47 47.82 104.51 29.04 139.97 50.35 173.92 69.13 138.47"/><polygon class="cls-1" points="70.6 137.66 46.42 101.97 27.57 140.78 51.75 176.46 70.6 137.66"/><polygon class="cls-1" points="72.14 136.73 44.82 99.29 26.02 141.7 53.34 179.14 72.14 136.73"/><polygon class="cls-1" points="73.77 135.68 43.01 96.47 24.39 142.75 55.16 181.96 73.77 135.68"/><polygon class="cls-1" points="75.48 134.49 40.95 93.51 22.68 143.94 57.22 184.92 75.48 134.49"/><polygon class="cls-1" points="77.27 133.15 38.63 90.41 20.89 145.28 59.54 188.03 77.27 133.15"/><polygon class="cls-1" points="79.15 131.64 36.02 87.16 19.02 146.79 62.15 191.28 79.15 131.64"/><polygon class="cls-1" points="81.11 129.95 33.09 83.76 17.06 148.49 65.08 194.67 81.11 129.95"/><polygon class="cls-1" points="83.15 128.06 29.82 80.22 15.02 150.38 68.35 198.21 83.15 128.06"/><polygon class="cls-1" points="85.27 125.94 26.16 76.55 12.89 152.49 72 201.89 85.27 125.94"/><polygon class="cls-1" points="87.48 123.59 22.1 72.73 10.69 154.84 76.06 205.7 87.48 123.59"/><polygon class="cls-1" points="89.75 120.99 17.59 68.78 8.41 157.44 80.57 209.65 89.75 120.99"/><polygon class="cls-1" points="92.11 118.1 12.6 64.71 6.06 160.33 85.56 213.73 92.11 118.1"/><polygon class="cls-1" points="94.52 114.91 7.09 60.52 3.64 163.52 91.08 217.92 94.52 114.91"/><polygon class="cls-1" points="97 111.4 1 56.22 1.17 167.04 97.17 222.21 97 111.4"/><polygon class="cls-1" points="101.8 53.6 92.77 47.54 92.04 58.38 101.06 64.43 101.8 53.6"/><polygon class="cls-1" points="102.07 53.23 92.15 47.07 91.77 58.74 101.69 64.9 102.07 53.23"/><polygon class="cls-1" points="102.35 52.84 91.46 46.58 91.48 59.14 102.38 65.39 102.35 52.84"/><polygon class="cls-1" points="102.64 52.4 90.7 46.09 91.2 59.58 103.14 65.89 102.64 52.4"/><polygon class="cls-1" points="102.93 51.91 89.86 45.58 90.9 60.06 103.98 66.39 102.93 51.91"/><polygon class="cls-1" points="103.23 51.39 88.94 45.07 90.61 60.59 104.89 66.9 103.23 51.39"/><polygon class="cls-1" points="103.53 50.81 87.94 44.55 90.31 61.17 105.9 67.42 103.53 50.81"/><polygon class="cls-1" points="103.83 50.17 86.84 44.04 90.01 61.8 107 67.93 103.83 50.17"/><polygon class="cls-1" points="104.12 49.48 85.64 43.52 89.71 62.49 108.2 68.45 104.12 49.48"/><polygon class="cls-1" points="104.42 48.72 84.33 43.02 89.42 63.25 109.51 68.95 104.42 48.72"/><polygon class="cls-1" points="104.7 47.9 82.91 42.52 89.13 64.07 110.93 69.45 104.7 47.9"/><polygon class="cls-1" points="104.98 47 81.35 42.05 88.86 64.97 112.48 69.93 104.98 47"/><polygon class="cls-1" points="105.25 46.03 79.67 41.59 88.59 65.94 114.17 70.38 105.25 46.03"/><polygon class="cls-1" points="105.49 44.98 77.84 41.16 88.34 67 115.99 70.81 105.49 44.98"/><polygon class="cls-1" points="105.72 43.83 75.86 40.77 88.12 68.14 117.97 71.2 105.72 43.83"/><polygon class="cls-1" points="105.92 42.59 73.72 40.43 87.92 69.38 120.12 71.55 105.92 42.59"/><polygon class="cls-1" points="106.09 41.26 71.41 40.13 87.75 70.72 122.43 71.84 106.09 41.26"/><polygon class="cls-1" points="106.22 39.81 68.91 39.91 87.62 72.16 124.93 72.06 106.22 39.81"/><polygon class="cls-1" points="106.31 38.26 66.22 39.76 87.53 73.71 127.62 72.21 106.31 38.26"/><polygon class="cls-1" points="106.34 36.58 63.32 39.7 87.49 75.39 130.52 72.27 106.34 36.58"/><polygon class="cls-1" points="106.32 34.78 60.2 39.75 87.52 77.19 133.64 72.22 106.32 34.78"/><polygon class="cls-1" points="106.22 32.85 56.85 39.91 87.61 79.13 136.99 72.06 106.22 32.85"/><polygon class="cls-1" points="106.05 30.77 53.26 40.22 87.79 81.2 140.58 71.75 106.05 30.77"/><polygon class="cls-1" points="105.79 28.55 49.41 40.68 88.05 83.42 144.43 71.29 105.79 28.55"/><polygon class="cls-1" points="105.42 26.17 45.29 41.32 88.42 85.81 148.55 70.65 105.42 26.17"/><polygon class="cls-1" points="104.94 23.63 40.88 42.16 88.9 88.35 152.95 69.81 104.94 23.63"/><polygon class="cls-1" points="104.32 20.91 36.18 43.23 89.52 91.06 157.65 68.74 104.32 20.91"/><polygon class="cls-1" points="103.56 18.02 31.17 44.56 90.28 93.96 162.66 67.41 103.56 18.02"/><polygon class="cls-1" points="102.63 14.93 25.84 46.17 91.21 97.04 168 65.8 102.63 14.93"/><polygon class="cls-1" points="101.51 11.65 20.17 48.11 92.33 100.32 173.67 63.86 101.51 11.65"/><polygon class="cls-1" points="100.19 8.18 14.15 50.4 93.65 103.8 179.69 61.57 100.19 8.18"/><polygon class="cls-1" points="98.64 4.49 7.76 53.09 95.2 107.49 186.08 58.88 98.64 4.49"/><polygon class="cls-1" points="96.84 0.58 1 56.22 97 111.4 192.84 55.75 96.84 0.58"/></svg>